<?xml version="1.0" encoding="utf-8"?>
<!-- Generator: Adobe Illustrator 18.0.0, SVG Export Plug-In . SVG Version: 6.00 Build 0)  -->
<!DOCTYPE svg PUBLIC "-//W3C//DTD SVG 1.1//EN" "http://www.w3.org/Graphics/SVG/1.1/DTD/svg11.dtd">
<svg version="1.1" id="Layer_1" xmlns="http://www.w3.org/2000/svg" xmlns:xlink="http://www.w3.org/1999/xlink" x="0px" y="0px"
	 viewBox="0 0 200 200" enable-background="new 0 0 200 200" xml:space="preserve">
<g id="angellist">
	<circle cx="100" cy="100" r="100"/>
	<path fill="#FFFFFF" d="M65.537,109.687c-0.728-1.919-1.853-4.832-1.853-6.884c0-5.428,6.685-12.18,12.113-12.18
		c1.589,0,3.178,0.463,4.634,0.993c-2.78-7.876-10.789-30.051-10.789-37.53c0-6.686,3.376-11.981,10.591-11.981
		c9.267,0,19.791,33.361,22.042,39.98c2.912-7.281,12.047-37.796,22.373-37.796c6.486,0,10.127,5.163,10.127,11.319
		c0,7.016-7.811,28.86-10.525,36.406c11.12,2.714,12.709,11.716,12.709,21.711c0,26.477-16.879,46.996-44.216,46.996
		c-5.03,0-9.995-0.993-14.761-2.78c-12.576-4.766-24.292-17.673-24.292-31.639C53.689,117.696,56.998,112.004,65.537,109.687z
		 M62.889,132.589c5.229,12.908,17.011,20.453,30.779,20.453c10.061,0,18.534-3.839,25.285-11.252
		c7.149-7.943,10.061-17.74,10.061-28.265c0-3.706,0.066-9.597-2.846-12.245c-5.56-4.898-24.425-6.751-31.904-6.751
		c-0.927,0-2.516,0.066-3.244,0.728c-0.795,0.331-0.795,1.589-0.795,2.317c0,10.127,21.38,9.201,27.8,9.201
		c1.258,0,1.853,0.331,2.648,1.257c0.86,1.059,1.125,2.317,1.257,3.641c-1.721,1.721-4.104,2.713-6.354,3.574
		c-2.184,0.794-4.302,1.655-6.156,3.045c-5.097,3.706-10.127,10.061-10.127,16.614c0,4.104,2.449,7.613,2.449,11.65
		c0,0.066-0.463,1.522-0.463,1.721c-7.546-0.529-9.399-8.009-9.664-14.298c-0.794,0.199-1.853,0.133-2.713,0.133
		c0.132,0.463,0.132,0.927,0.132,1.39c0,4.832-4.302,8.34-8.936,8.34c-7.148,0-16.614-8.406-16.614-15.687
		c0-1.986,0.86-3.112,2.184-4.435c1.324,1.655,2.714,3.31,3.972,5.03c1.919,2.581,5.229,6.884,8.803,6.884
		c0.927,0,2.714-0.794,2.714-1.919c0-2.978-10.855-16.945-13.504-16.945c-4.17,0-6.42,5.494-6.42,8.936
		C61.235,128.088,62.029,130.405,62.889,132.589z M89.498,126.169c1.324,0,2.45-1.456,2.45-2.647c0-1.523-1.523-5.296-2.118-6.752
		c-1.722-4.435-8.009-18.137-13.437-18.137c-1.788,0-4.7,3.111-4.7,4.898C71.693,108.364,84.667,126.169,89.498,126.169z
		 M87.447,87.778c0.926-0.529,2.118-0.662,3.243-0.662c1.589,0,3.376,0.199,4.964,0.331l-8.009-23.234
		c-0.86-2.516-4.7-14.562-8.141-14.562c-1.788,0-2.582,2.118-2.582,3.641C76.922,60.043,84.932,81.093,87.447,87.778z
		 M98.434,118.425c1.456-1.655,2.979-3.177,4.7-4.435c-2.317-0.463-4.633-0.661-6.884-1.389
		C96.978,114.52,97.772,116.439,98.434,118.425z M108.496,88.837l7.745,1.389c1.985-5.428,10.921-29.852,10.921-34.287
		c0-1.655-0.529-3.707-2.515-3.707c-3.707,0-7.679,12.047-8.605,14.893L108.496,88.837z"/>
</g>
</svg>
