<?xml version="1.0" encoding="utf-8"?>
<!-- Generator: Adobe Illustrator 18.0.0, SVG Export Plug-In . SVG Version: 6.00 Build 0)  -->
<!DOCTYPE svg PUBLIC "-//W3C//DTD SVG 1.1//EN" "http://www.w3.org/Graphics/SVG/1.1/DTD/svg11.dtd">
<svg version="1.1" id="Layer_1" xmlns="http://www.w3.org/2000/svg" xmlns:xlink="http://www.w3.org/1999/xlink" x="0px" y="0px"
	 viewBox="0 0 200 200" enable-background="new 0 0 200 200" xml:space="preserve">
<circle fill="#1769FF" cx="100" cy="100" r="100"/>
<path fill="#FFFFFF" d="M80.735,65.674c11.769,0,21.957,3.324,21.957,16.999c0,6.92-3.214,11.387-9.372,14.33
	c8.446,2.398,12.532,8.772,12.532,17.381c0,13.948-11.714,19.941-24.192,19.941H48.369V65.674H80.735z M78.772,93.407
	c5.394,0,9.209-2.343,9.209-8.173c0-6.32-4.903-7.845-10.352-7.845H63.462v16.019H78.772z M79.59,122.665
	c6.156,0,11.169-2.18,11.169-9.099c0-7.029-4.194-9.808-10.843-9.808H63.462v18.907H79.59z M146.991,118.905h12.042
	c-3.706,11.387-11.389,16.727-23.266,16.727c-15.693,0-25.446-10.625-25.446-26.098c0-14.929,10.297-26.316,25.446-26.316
	c15.583,0,24.192,12.259,24.192,26.97c0,0.872-0.054,1.744-0.109,2.561h-35.853c0,7.955,4.196,12.641,12.206,12.641
	C140.342,125.389,145.682,123.155,146.991,118.905z M121.218,70.305v6.756h27.843v-6.756H121.218z M123.996,104.14h22.232
	c-0.6-6.593-4.033-10.625-10.899-10.625C128.792,93.516,124.432,97.602,123.996,104.14z"/>
</svg>
