<?xml version="1.0" encoding="utf-8"?>
<!-- Generator: Adobe Illustrator 18.0.0, SVG Export Plug-In . SVG Version: 6.00 Build 0)  -->
<!DOCTYPE svg PUBLIC "-//W3C//DTD SVG 1.1//EN" "http://www.w3.org/Graphics/SVG/1.1/DTD/svg11.dtd">
<svg version="1.1" id="Layer_1" xmlns="http://www.w3.org/2000/svg" xmlns:xlink="http://www.w3.org/1999/xlink" x="0px" y="0px"
	 viewBox="0 0 200 200" enable-background="new 0 0 200 200" xml:space="preserve">
<circle fill="#CC2127" cx="100" cy="100" r="100"/>
<path fill="#FFFFFF" d="M146.289,62.089v75.823c0,4.641-3.737,8.378-8.379,8.378H62.089c-4.641,0-8.379-3.737-8.379-8.378V62.089
	c0-4.641,3.737-8.378,8.379-8.378h75.821C142.552,53.711,146.289,57.447,146.289,62.089z M142.01,62.089
	c0-2.23-1.868-4.098-4.099-4.098H62.089c-2.231,0-4.099,1.869-4.099,4.098v75.823c0,2.23,1.868,4.098,4.099,4.098h75.821
	c2.231,0,4.099-1.869,4.099-4.098V62.089z M138.996,62.089v25.796c-3.616-1.265-7.413-2.29-11.331-3.134
	c-12.236-2.652-25.376-2.713-38.876-0.724c-0.482,0.121-0.604,0.121-1.086,0.181l-3.918-8.076H69.743l5.123,11.451
	c-5.424,2.11-10.065,4.942-13.862,8.258V62.089c0-0.603,0.482-1.085,1.086-1.085h75.821
	C138.514,61.004,138.996,61.486,138.996,62.089z M106.871,116.756l32.125-8.74v29.896c0,0.603-0.482,1.085-1.086,1.085H62.089
	c-0.604,0-1.086-0.482-1.086-1.085v-8.499l42.854-11.753L91.079,91.2c0.482-0.06,0.964-0.181,1.447-0.241
	c20.913-3.737,33.812,0.422,40.262,7.172c1.446,1.507-0.122,2.17-1.508,2.532c0,0-3.857,0.965-15.43,3.737l-5.847-11.934
	c-4.098-0.241-8.919,0-14.464,0.964L106.871,116.756z M68.538,113.682c-0.784-6.63,1.024-13.561,10.005-18.383l7.775,16.274
	l-15.37,3.677C69.864,115.49,68.719,114.827,68.538,113.682z"/>
</svg>
