<?xml version="1.0" encoding="utf-8"?>
<!-- Generator: Adobe Illustrator 18.0.0, SVG Export Plug-In . SVG Version: 6.00 Build 0)  -->
<!DOCTYPE svg PUBLIC "-//W3C//DTD SVG 1.1//EN" "http://www.w3.org/Graphics/SVG/1.1/DTD/svg11.dtd">
<svg version="1.1" id="Layer_1" xmlns="http://www.w3.org/2000/svg" xmlns:xlink="http://www.w3.org/1999/xlink" x="0px" y="0px"
	 viewBox="0 0 200 200" enable-background="new 0 0 200 200" xml:space="preserve">
<g id="flickr">
	<circle cx="100" cy="100" r="100"/>
	<g>
		<path fill="#FFFFFF" d="M149.251,69.218v61.564c0,10.197-8.272,18.469-18.469,18.469H69.218c-10.197,0-18.469-8.272-18.469-18.469
			V69.218c0-10.197,8.272-18.469,18.469-18.469h61.564C140.979,50.749,149.251,59.021,149.251,69.218z"/>
		<path fill="#0063DC" d="M81.916,86.404c-7.503,0-13.596,6.093-13.596,13.596s6.093,13.596,13.596,13.596
			S95.511,107.503,95.511,100S89.419,86.404,81.916,86.404z"/>
		<path fill="#FF0084" d="M118.084,86.404c-7.503,0-13.595,6.093-13.595,13.596s6.092,13.596,13.595,13.596
			S131.68,107.503,131.68,100S125.588,86.404,118.084,86.404z"/>
	</g>
</g>
</svg>
