<?xml version="1.0" encoding="utf-8"?>
<!-- Generator: Adobe Illustrator 18.0.0, SVG Export Plug-In . SVG Version: 6.00 Build 0)  -->
<!DOCTYPE svg PUBLIC "-//W3C//DTD SVG 1.1//EN" "http://www.w3.org/Graphics/SVG/1.1/DTD/svg11.dtd">
<svg version="1.1" id="Layer_1" xmlns="http://www.w3.org/2000/svg" xmlns:xlink="http://www.w3.org/1999/xlink" x="0px" y="0px"
	 viewBox="0 0 200 200" enable-background="new 0 0 200 200" xml:space="preserve">
<circle fill="#333333" cx="100" cy="100" r="100"/>
<path fill="#FFFFFF" d="M119.617,158.852c-3.148,0.565-4.197-1.373-4.197-2.987c0-2.018,0-8.719,0-17.035
	c0-5.812-1.938-9.526-4.198-11.464c13.805-1.534,28.336-6.781,28.336-30.596c0-6.782-2.422-12.352-6.377-16.63
	c0.646-1.615,2.744-7.912-0.647-16.469c-5.167-1.614-17.034,6.378-17.034,6.378c-4.924-1.373-10.253-2.1-15.5-2.1
	c-5.247,0-10.576,0.727-15.5,2.1c0,0-11.867-7.992-17.115-6.378c-3.309,8.557-1.211,14.854-0.565,16.469
	c-3.955,4.279-6.377,9.849-6.377,16.63c0,23.734,14.451,29.062,28.256,30.596c-1.777,1.615-3.391,4.279-3.956,8.315
	c-3.553,1.615-12.594,4.36-18.003-5.167c-3.391-5.893-9.526-6.377-9.526-6.377c-6.055-0.08-0.403,3.794-0.403,3.794
	c4.036,1.857,6.861,9.042,6.861,9.042c3.633,11.059,20.909,7.346,20.909,7.346c0,5.167,0.081,10.092,0.081,11.545
	c0,1.614-1.13,3.552-4.279,2.987C55.761,150.617,38,127.367,38,100c0-34.229,27.771-62,62-62s62,27.771,62,62
	C162,127.367,144.239,150.617,119.617,158.852z"/>
</svg>
