<?xml version="1.0" encoding="utf-8"?>
<!-- Generator: Adobe Illustrator 18.0.0, SVG Export Plug-In . SVG Version: 6.00 Build 0)  -->
<!DOCTYPE svg PUBLIC "-//W3C//DTD SVG 1.1//EN" "http://www.w3.org/Graphics/SVG/1.1/DTD/svg11.dtd">
<svg version="1.1" id="Layer_1" xmlns="http://www.w3.org/2000/svg" xmlns:xlink="http://www.w3.org/1999/xlink" x="0px" y="0px"
	 viewBox="0 0 200 200" enable-background="new 0 0 200 200" xml:space="preserve">
<circle fill="#DD4B39" cx="100" cy="100" r="100"/>
<path fill="#FFFFFF" d="M122.951,128.134c0,4.104-1.21,8.14-3.228,11.638c-6.931,11.774-21.396,15.945-34.248,15.945
	c-10.092,0-22.54-2.624-28.125-12.042c-1.614-2.624-2.489-5.719-2.489-8.813c0-7.602,4.71-13.926,10.967-17.828
	c7.872-4.911,18.099-6.122,27.182-6.727c-2.354-3.095-4.238-5.853-4.238-9.889c0-2.153,0.605-3.835,1.413-5.719
	c-1.548,0.134-3.028,0.269-4.575,0.269c-13.12,0-23.617-9.553-23.617-22.941c0-7.4,3.498-14.666,9.083-19.509
	c7.266-6.257,17.561-8.746,26.913-8.746h28.125l-9.284,5.92h-8.815c6.257,5.315,10.092,11.235,10.092,19.711
	c0,17.425-15.946,19.375-15.946,27.92C102.161,106.202,122.951,109.162,122.951,128.134z M113.397,133.852
	c0-9.082-9.016-14.599-15.542-19.308c-1.077-0.135-2.153-0.135-3.23-0.135c-10.967,0-27.25,3.499-27.25,17.357
	c0,13.119,14.197,17.828,25.097,17.828C102.43,149.594,113.397,145.423,113.397,133.852z M102.026,86.826
	c2.759-2.96,3.566-6.727,3.566-10.697c0-9.956-5.853-26.843-17.964-26.843c-3.768,0-7.67,1.884-9.958,4.844
	c-2.422,3.028-3.162,6.997-3.162,10.764c0,10.091,5.719,25.969,17.83,25.969C95.702,90.863,99.671,89.248,102.026,86.826z
	 M161.302,90.661v7.265h-14.33v14.734h-7.065V97.926h-14.264v-7.265h14.264V76.062h7.065v14.599H161.302z"/>
</svg>
