<?xml version="1.0" encoding="utf-8"?>
<!-- Generator: Adobe Illustrator 18.0.0, SVG Export Plug-In . SVG Version: 6.00 Build 0)  -->
<!DOCTYPE svg PUBLIC "-//W3C//DTD SVG 1.1//EN" "http://www.w3.org/Graphics/SVG/1.1/DTD/svg11.dtd">
<svg version="1.1" id="Layer_1" xmlns="http://www.w3.org/2000/svg" xmlns:xlink="http://www.w3.org/1999/xlink" x="0px" y="0px"
	 viewBox="0 0 200 200" enable-background="new 0 0 200 200" xml:space="preserve">
<g id="instagram">
	<circle fill="#3F729B" cx="100" cy="100" r="100"/>
	<path fill="#FFFFFF" d="M147.422,135.258c0,6.668-5.495,12.164-12.164,12.164H64.742c-6.668,0-12.164-5.495-12.164-12.164V64.742
		c0-6.668,5.495-12.164,12.164-12.164h70.516c6.668,0,12.164,5.495,12.164,12.164V135.258z M136.678,92.714h-8.336
		c0.803,2.531,1.235,5.31,1.235,8.089c0,15.807-13.214,28.589-29.516,28.589c-16.24,0-29.453-12.782-29.453-28.589
		c0-2.779,0.432-5.558,1.235-8.089h-8.707v40.012c0,2.1,1.667,3.766,3.766,3.766h66.008c2.099,0,3.766-1.667,3.766-3.766V92.714z
		 M100.062,81.352c-10.497,0-19.018,8.274-19.018,18.462c0,10.189,8.521,18.462,19.018,18.462c10.559,0,19.08-8.274,19.08-18.462
		C119.142,89.627,110.62,81.352,100.062,81.352z M136.678,67.398c0-2.347-1.914-4.261-4.26-4.261h-10.744
		c-2.347,0-4.261,1.914-4.261,4.261v10.188c0,2.347,1.914,4.26,4.261,4.26h10.744c2.346,0,4.26-1.914,4.26-4.26V67.398z"/>
</g>
</svg>
