<?xml version="1.0" encoding="utf-8"?>
<!-- Generator: Adobe Illustrator 18.0.0, SVG Export Plug-In . SVG Version: 6.00 Build 0)  -->
<!DOCTYPE svg PUBLIC "-//W3C//DTD SVG 1.1//EN" "http://www.w3.org/Graphics/SVG/1.1/DTD/svg11.dtd">
<svg version="1.1" id="Layer_1" xmlns="http://www.w3.org/2000/svg" xmlns:xlink="http://www.w3.org/1999/xlink" x="0px" y="0px"
	 viewBox="0 0 200 200" enable-background="new 0 0 200 200" xml:space="preserve">
<circle fill="#C3000D" cx="100" cy="100" r="100"/>
<path fill="#FFFFFF" d="M127.031,80.015c1.843,5.598,6.144,6.757,11.263,8.191c11.401,3.208,22.186,9.285,22.186,22.664
	c0,13.585-11.331,23.141-24.576,23.141c-21.981,0-28.807-26.896-35.155-43.279C95.493,77.216,89.964,69.297,74.74,69.297
	c-13.515,0-25.394,12.971-25.394,26.282c0,14.13,10.581,27.237,25.258,27.237c6.484,0,13.243-1.366,17.612-6.485
	c2.117-2.389,4.165-4.983,5.666-7.918l5.734,10.376c-0.752,1.707-1.843,3.345-3.003,4.779l0.068,0.068
	c-6.894,7.987-16.316,10.376-26.487,10.376c-20.615,0-36.043-18.226-36.043-38.296c0-19.455,16.93-37.545,36.589-37.545
	c32.631,0,34.269,28.261,45.328,50.993c3.003,6.28,8.122,13.653,15.906,13.653c7.098,0,13.379-4.574,13.379-12.083
	c0-16.247-29.831-5.188-34.063-31.879c-0.136-0.751-0.206-1.502-0.206-2.253c0-10.103,9.489-18.772,19.525-18.431
	c6.007,0.204,9.626,0.409,14.403,4.642h-0.068c1.843,1.707,3.209,4.027,4.643,6.007l-8.806,6.758
	c-1.024-1.911-1.98-3.481-3.687-4.778v-0.07c-1.638-1.502-4.573-1.434-6.622-1.434c-4.437,0-8.122,3.345-8.122,7.919
	C126.349,77.626,126.895,79.537,127.031,80.015z"/>
</svg>
