<?xml version="1.0" encoding="utf-8"?>
<!-- Generator: Adobe Illustrator 18.0.0, SVG Export Plug-In . SVG Version: 6.00 Build 0)  -->
<!DOCTYPE svg PUBLIC "-//W3C//DTD SVG 1.1//EN" "http://www.w3.org/Graphics/SVG/1.1/DTD/svg11.dtd">
<svg version="1.1" id="Layer_1" xmlns="http://www.w3.org/2000/svg" xmlns:xlink="http://www.w3.org/1999/xlink" x="0px" y="0px"
	 viewBox="0 0 200 200" enable-background="new 0 0 200 200" xml:space="preserve">
<circle fill="#0976B4" cx="100" cy="100" r="100"/>
<path fill="#FFFFFF" d="M149.251,130.782c0,10.197-8.272,18.469-18.469,18.469H69.218c-10.197,0-18.469-8.272-18.469-18.469V69.218
	c0-10.197,8.272-18.469,18.469-18.469h61.564c10.197,0,18.469,8.272,18.469,18.469V130.782z M73.451,67.294
	c-5.067,0-8.401,3.334-8.401,7.695c0,4.233,3.206,7.696,8.209,7.696h0.064c5.195,0,8.401-3.463,8.401-7.696
	C81.659,70.629,78.517,67.294,73.451,67.294z M80.761,133.219V88.713H65.947v44.507H80.761z M134.052,133.219v-25.524
	c0-13.66-7.311-20.009-17.058-20.009c-7.952,0-11.48,4.425-13.403,7.503h0.128v-6.478H88.905c0,0,0.193,4.169,0,44.507h14.814
	v-24.882c0-1.283,0.065-2.63,0.449-3.591c1.09-2.63,3.528-5.387,7.632-5.387c5.322,0,7.439,4.04,7.439,10.068v23.793H134.052z"/>
</svg>
