<?xml version="1.0" encoding="utf-8"?>
<!-- Generator: Adobe Illustrator 18.0.0, SVG Export Plug-In . SVG Version: 6.00 Build 0)  -->
<!DOCTYPE svg PUBLIC "-//W3C//DTD SVG 1.1//EN" "http://www.w3.org/Graphics/SVG/1.1/DTD/svg11.dtd">
<svg version="1.1" id="Layer_1" xmlns="http://www.w3.org/2000/svg" xmlns:xlink="http://www.w3.org/1999/xlink" x="0px" y="0px"
	 viewBox="0 0 200 200" enable-background="new 0 0 200 200" xml:space="preserve">
<circle fill="#CC2127" cx="100" cy="100" r="100"/>
<path fill="#FFFFFF" d="M100,162c-6.135,0-11.948-0.888-17.599-2.583c2.341-3.714,5.005-8.477,6.297-13.239
	c0,0,0.726-2.745,4.359-17.034c2.099,4.117,8.396,7.75,15.096,7.75c19.941,0,33.503-18.165,33.503-42.545
	c0-18.326-15.58-35.52-39.315-35.52c-29.385,0-44.239,21.15-44.239,38.75c0,10.656,4.036,20.182,12.674,23.734
	c1.373,0.565,2.664,0,3.068-1.614c0.323-1.05,0.968-3.795,1.291-4.925c0.404-1.614,0.242-2.099-0.888-3.471
	c-2.502-2.987-4.117-6.781-4.117-12.19c0-15.662,11.706-29.709,30.515-29.709c16.63,0,25.833,10.172,25.833,23.815
	c0,17.842-7.911,32.938-19.697,32.938c-6.459,0-11.303-5.328-9.768-11.947c1.856-7.831,5.489-16.307,5.489-21.959
	c0-5.086-2.745-9.365-8.397-9.365c-6.62,0-11.947,6.862-11.947,16.065c0,0,0,5.894,2.018,9.85
	c-6.782,28.739-7.992,33.744-7.992,33.744c-1.13,4.683-1.211,9.93-1.05,14.289C53.258,147.227,38,125.43,38,100
	c0-34.229,27.771-62,62-62s62,27.771,62,62S134.229,162,100,162z"/>
</svg>
