<?xml version="1.0" encoding="utf-8"?>
<!-- Generator: Adobe Illustrator 18.0.0, SVG Export Plug-In . SVG Version: 6.00 Build 0)  -->
<!DOCTYPE svg PUBLIC "-//W3C//DTD SVG 1.1//EN" "http://www.w3.org/Graphics/SVG/1.1/DTD/svg11.dtd">
<svg version="1.1" id="Layer_1" xmlns="http://www.w3.org/2000/svg" xmlns:xlink="http://www.w3.org/1999/xlink" x="0px" y="0px"
	 viewBox="0 0 200 200" enable-background="new 0 0 200 200" xml:space="preserve">
<circle fill="#FF4500" cx="100" cy="100" r="100"/>
<path fill="#FFFFFF" d="M160.113,107.69c0-7.553-6.103-13.656-13.656-13.656c-3.504,0-6.706,1.33-9.124,3.505
	c-9.184-5.982-21.088-9.486-33.838-10.031l7.01-22.115l19.033,4.472c0.06,6.163,5.076,11.178,11.239,11.178
	c6.223,0,11.239-5.076,11.239-11.3c0-6.163-5.016-11.239-11.239-11.239c-4.593,0-8.58,2.78-10.332,6.768l-20.967-4.955
	c-1.209-0.242-2.416,0.423-2.779,1.572l-8.097,25.559c-13.475,0.242-26.104,3.746-35.771,9.909
	c-2.418-2.055-5.559-3.324-8.943-3.324c-7.554,0-13.656,6.103-13.656,13.656c0,4.834,2.598,9.124,6.405,11.541
	c-0.182,1.329-0.303,2.658-0.303,3.988c0,9.789,5.68,18.852,16.074,25.62c10.03,6.586,23.383,10.212,37.523,10.212
	s27.433-3.626,37.523-10.212c10.332-6.767,16.074-15.831,16.074-25.62c0-1.208-0.122-2.477-0.303-3.686
	C157.334,117.176,160.113,112.766,160.113,107.69z M73.767,116.753c0-4.592,3.867-8.399,8.4-8.399c4.531,0,8.278,3.807,8.278,8.399
	c0,4.532-3.747,8.217-8.278,8.217C77.634,124.971,73.767,121.285,73.767,116.753z M119.507,139.668
	c-4.048,4.049-10.332,5.332-19.274,5.332h-0.122c-8.942,0-15.226-1.283-19.275-5.332c-0.906-0.906-0.906-2.092,0-2.999
	c0.908-0.906,2.357-1.068,3.263-0.161c3.142,3.142,8.339,4.492,16.012,4.492h0.122c7.612,0,12.87-1.187,16.012-4.329
	c0.906-0.906,2.356-1.069,3.262-0.163C120.415,137.415,120.415,138.762,119.507,139.668z M118.3,124.971
	c-4.532,0-8.4-3.686-8.4-8.217c0-4.592,3.867-8.399,8.4-8.399c4.531,0,8.278,3.807,8.278,8.399
	C126.578,121.285,122.831,124.971,118.3,124.971z"/>
</svg>
