<?xml version="1.0" encoding="utf-8"?>
<!-- Generator: Adobe Illustrator 18.0.0, SVG Export Plug-In . SVG Version: 6.00 Build 0)  -->
<!DOCTYPE svg PUBLIC "-//W3C//DTD SVG 1.1//EN" "http://www.w3.org/Graphics/SVG/1.1/DTD/svg11.dtd">
<svg version="1.1" id="Layer_1" xmlns="http://www.w3.org/2000/svg" xmlns:xlink="http://www.w3.org/1999/xlink" x="0px" y="0px"
	 viewBox="0 0 200 200" enable-background="new 0 0 200 200" xml:space="preserve">
<g>
	<circle fill="#E9A821" cx="100" cy="100" r="100"/>
	<path fill="#FFFFFF" d="M161.072,106.308c0,4.716-2.431,8.033-6.854,9.581l-12.675,4.347l4.127,12.307
		c0.369,1.106,0.516,2.285,0.516,3.464c0,5.822-4.716,10.685-10.538,10.685c-4.643,0-8.77-2.874-10.244-7.296l-4.052-12.159
		l-22.846,7.812l4.054,12.086c0.368,1.105,0.589,2.285,0.589,3.463c0,5.748-4.716,10.686-10.613,10.686
		c-4.642,0-8.696-2.874-10.169-7.296l-4.054-12.012l-11.275,3.906c-1.179,0.369-2.432,0.664-3.685,0.664
		c-5.969,0-10.465-4.422-10.465-10.391c0-4.569,2.948-8.696,7.296-10.17l11.497-3.906l-7.738-23.066l-11.497,3.98
		c-1.179,0.368-2.358,0.589-3.537,0.589c-5.896,0-10.465-4.495-10.465-10.391c0-4.569,2.948-8.696,7.296-10.17l11.57-3.906
		l-3.906-11.717c-0.368-1.106-0.589-2.285-0.589-3.464c0-5.822,4.716-10.685,10.612-10.685c4.643,0,8.697,2.874,10.17,7.296
		l3.979,11.791l22.846-7.738l-3.98-11.791c-0.368-1.105-0.589-2.285-0.589-3.463c0-5.822,4.79-10.686,10.613-10.686
		c4.642,0,8.769,2.948,10.243,7.296l3.905,11.865l11.939-4.053c1.032-0.295,2.064-0.442,3.169-0.442
		c5.748,0,10.687,4.274,10.687,10.17c0,4.569-3.538,8.401-7.665,9.801l-11.57,3.979l7.738,23.288l12.086-4.127
		c1.105-0.368,2.284-0.589,3.389-0.589C156.431,95.843,161.072,100.265,161.072,106.308z M114.719,107.413L106.981,84.2
		l-22.846,7.885l7.738,23.066L114.719,107.413z"/>
</g>
</svg>
