<?xml version="1.0" encoding="utf-8"?>
<!-- Generator: Adobe Illustrator 18.0.0, SVG Export Plug-In . SVG Version: 6.00 Build 0)  -->
<!DOCTYPE svg PUBLIC "-//W3C//DTD SVG 1.1//EN" "http://www.w3.org/Graphics/SVG/1.1/DTD/svg11.dtd">
<svg version="1.1" id="Layer_1" xmlns="http://www.w3.org/2000/svg" xmlns:xlink="http://www.w3.org/1999/xlink" x="0px" y="0px"
	 viewBox="0 0 200 200" enable-background="new 0 0 200 200" xml:space="preserve">
<g>
	<circle fill="#FF8800" cx="100" cy="100" r="100"/>
	<path fill="#FFFFFF" d="M40.962,100.484l-1.077,6.781c-0.054,0.269-0.216,0.484-0.484,0.484c-0.269,0-0.43-0.215-0.485-0.484
		l-0.914-6.781l0.914-6.889c0.055-0.269,0.216-0.484,0.485-0.484c0.268,0,0.43,0.215,0.484,0.484L40.962,100.484z M45.914,100.484
		l-1.4,10.925c-0.054,0.269-0.269,0.485-0.538,0.485c-0.269,0-0.485-0.215-0.485-0.538l-1.238-10.871
		c1.238-11.14,1.238-11.14,1.238-11.14c0-0.269,0.216-0.485,0.485-0.485c0.268,0,0.484,0.215,0.538,0.485L45.914,100.484z
		 M50.81,100.484l-1.345,12.755c0,0.322-0.269,0.592-0.593,0.592c-0.322,0-0.591-0.269-0.645-0.592l-1.13-12.755l1.13-13.185
		c0.054-0.377,0.323-0.646,0.645-0.646c0.323,0,0.593,0.269,0.593,0.646L50.81,100.484z M55.761,100.484l-1.238,13.132
		c-0.054,0.43-0.377,0.699-0.753,0.699c-0.377,0-0.7-0.269-0.7-0.699l-1.13-13.132l1.13-13.562c0-0.43,0.323-0.699,0.7-0.699
		c0.377,0,0.7,0.269,0.753,0.699L55.761,100.484z M60.713,100.484l-1.13,13.239c-0.054,0.485-0.43,0.861-0.861,0.861
		s-0.807-0.377-0.807-0.861l-1.077-13.239l1.077-12.593c0-0.43,0.377-0.807,0.807-0.807s0.807,0.377,0.861,0.807L60.713,100.484z
		 M65.772,100.484l-1.13,13.239c0,0.538-0.432,0.969-0.916,0.969c-0.538,0-0.914-0.43-0.968-0.969l-0.969-13.239
		c0.969-20.451,0.969-20.451,0.969-20.451c0.054-0.538,0.43-0.969,0.968-0.969c0.484,0,0.916,0.43,0.916,0.969L65.772,100.484z
		 M70.724,100.592l-1.023,13.131c0,0.592-0.484,1.023-1.023,1.023c-0.591,0-1.023-0.431-1.077-1.023l-0.861-13.131
		c0.861-25.187,0.861-25.187,0.861-25.187c0.054-0.592,0.485-1.022,1.077-1.022c0.539,0,1.023,0.43,1.023,1.022L70.724,100.592z
		 M75.943,100.484l-0.968,13.024c-0.055,0.646-0.539,1.13-1.184,1.13c-0.593,0-1.077-0.484-1.13-1.13l-0.862-13.024l0.862-27.232
		c0-0.646,0.538-1.184,1.13-1.184c0.645,0,1.129,0.538,1.184,1.184L75.943,100.484z M81.055,100.484l-0.861-28.147
		c-0.054-0.7-0.591-1.292-1.291-1.292c-0.646,0-1.238,0.592-1.238,1.292l-0.753,28.147l0.753,12.97
		c0.054,0.7,0.591,1.238,1.238,1.238c0.7,0,1.237-0.538,1.291-1.238L81.055,100.484z M86.223,100.484l-0.807,12.862
		c0,0.753-0.593,1.345-1.346,1.345s-1.291-0.592-1.345-1.345l-0.753-12.862l0.753-27.447c0-0.753,0.591-1.345,1.345-1.345
		s1.346,0.592,1.346,1.345L86.223,100.484z M91.497,100.538l-0.753,12.701c0,0.807-0.646,1.453-1.453,1.453
		s-1.453-0.646-1.507-1.453l-0.646-12.701l0.646-26.478c0.054-0.861,0.7-1.507,1.507-1.507s1.4,0.646,1.453,1.507L91.497,100.538z
		 M96.717,100.538l-0.645-31.537c0-0.538-0.269-1.023-0.7-1.292c-0.269-0.162-0.539-0.269-0.861-0.269
		c-0.323,0-0.593,0.108-0.862,0.269c-0.43,0.269-0.699,0.753-0.699,1.292l-0.055,0.322l-0.538,31.161c0,0,0,0.054,0.593,12.701
		c0,0,0,0,0,0.054c0,0.322,0.107,0.646,0.322,0.915c0.323,0.377,0.753,0.592,1.239,0.592c0.43,0,0.807-0.215,1.075-0.485
		c0.323-0.269,0.485-0.646,0.485-1.077l0.054-1.291L96.717,100.538z M101.4,112.97c0,0.915-0.753,1.669-1.669,1.669
		c-0.914,0-1.668-0.753-1.722-1.669l-0.323-6.135l-0.323-6.297l0.646-34.228v-0.162c0.054-0.485,0.269-0.969,0.645-1.292
		c0.269-0.215,0.646-0.377,1.077-0.377c0.269,0,0.593,0.107,0.807,0.269c0.485,0.269,0.808,0.808,0.862,1.4l0.753,34.389
		L101.4,112.97z M146.767,114.692c-42.246,0-42.3,0-42.3,0c-0.916-0.107-1.669-0.807-1.669-1.776V64.534
		c0-0.915,0.323-1.345,1.507-1.776c2.96-1.184,6.297-1.83,9.742-1.83c14.046,0,25.564,10.764,26.801,24.487
		c1.83-0.753,3.821-1.184,5.919-1.184c8.396,0,15.231,6.835,15.231,15.284C161.998,107.911,155.163,114.692,146.767,114.692z"/>
</g>
</svg>
