<?xml version="1.0" encoding="utf-8"?>
<!-- Generator: Adobe Illustrator 18.0.0, SVG Export Plug-In . SVG Version: 6.00 Build 0)  -->
<!DOCTYPE svg PUBLIC "-//W3C//DTD SVG 1.1//EN" "http://www.w3.org/Graphics/SVG/1.1/DTD/svg11.dtd">
<svg version="1.1" id="Layer_1" xmlns="http://www.w3.org/2000/svg" xmlns:xlink="http://www.w3.org/1999/xlink" x="0px" y="0px"
	 viewBox="0 0 200 200" enable-background="new 0 0 200 200" xml:space="preserve">
<g id="spotify">
	<circle fill="#7AB800" cx="100" cy="100" r="100"/>
	<path fill="#FFFFFF" d="M157.115,85.356c-19.051-11.12-45.145-16.295-70.03-16.295c-14.645,0-28.078,1.651-40.079,5.175
		c-3.083,0.88-5.947,3.523-5.947,8.148c0,4.514,3.415,8.037,7.927,8.037c1.654,0,3.196-0.55,4.405-0.881
		c10.681-2.972,22.241-4.073,33.803-4.073c22.902,0,46.687,5.065,61.99,14.204c1.542,0.881,2.644,1.321,4.405,1.321
		c4.183,0,7.927-3.303,7.927-7.927C161.518,88.991,159.757,86.898,157.115,85.356z M145.772,113.655
		c-16.845-10.02-38.208-15.526-60.339-15.526c-14.204,0-23.895,1.982-33.364,4.625c-3.522,0.99-5.283,3.414-5.283,7.047
		c0,3.633,2.971,6.607,6.605,6.607c1.542,0,2.422-0.44,4.073-0.882c7.708-2.092,16.958-3.633,27.639-3.633
		c20.919,0,39.969,5.505,53.731,13.654c1.212,0.661,2.422,1.432,4.186,1.432c3.742,0,6.605-2.973,6.605-6.607
		C149.626,117.398,148.526,115.306,145.772,113.655z M135.752,138.429c-14.204-8.479-30.72-12.662-49.219-12.662
		c-10.789,0-21.141,1.431-31.6,3.743c-2.532,0.551-4.625,2.203-4.625,5.726c0,2.753,2.093,5.396,5.396,5.396
		c0.99,0,2.754-0.551,4.073-0.882c8.589-1.761,17.619-2.972,26.756-2.972c16.187,0,31.493,3.964,43.713,11.341
		c1.322,0.771,2.203,1.211,3.635,1.211c2.751,0,5.173-2.203,5.173-5.286C139.055,140.961,137.845,139.75,135.752,138.429z"/>
</g>
</svg>
