<?xml version="1.0" encoding="utf-8"?>
<!-- Generator: Adobe Illustrator 18.0.0, SVG Export Plug-In . SVG Version: 6.00 Build 0)  -->
<!DOCTYPE svg PUBLIC "-//W3C//DTD SVG 1.1//EN" "http://www.w3.org/Graphics/SVG/1.1/DTD/svg11.dtd">
<svg version="1.1" id="Layer_1" xmlns="http://www.w3.org/2000/svg" xmlns:xlink="http://www.w3.org/1999/xlink" x="0px" y="0px"
	 viewBox="0 0 200 200" enable-background="new 0 0 200 200" xml:space="preserve">
<g id="steam">
	<circle fill="#CC2127" cx="100" cy="100" r="100"/>
	<path fill="#FFFFFF" d="M149.252,130.782c0,10.197-8.272,18.469-18.47,18.469H69.219c-10.198,0-18.47-8.272-18.47-18.469v-9.812
		l11.03,4.425c1.668,7.76,8.594,13.596,16.802,13.596c8.979,0,16.353-6.862,17.187-15.583l22.124-16.161
		c12.826,0,23.151-10.389,23.151-23.086c0-12.826-10.325-23.151-23.151-23.151c-12.632,0-22.958,10.261-23.086,22.894l-14.43,20.65
		c-0.577-0.064-1.155-0.064-1.796-0.064c-3.206,0-6.221,0.833-8.785,2.372l-19.047-7.631V69.218c0-10.197,8.272-18.469,18.47-18.469
		h61.563c10.198,0,18.47,8.272,18.47,18.469V130.782z M78.581,134.438c-4.874,0-9.106-2.758-11.223-6.798
		c2.117,0.834,4.17,1.668,6.285,2.565c5.13,2.052,11.03-0.449,13.147-5.643c2.053-5.131-0.449-11.031-5.643-13.083l-5.259-2.116
		c0.834-0.193,1.796-0.32,2.694-0.32c7.055,0,12.698,5.643,12.698,12.697C91.279,128.794,85.636,134.438,78.581,134.438z
		 M117.892,99.615c-8.528,0-15.455-6.926-15.455-15.455c0-8.594,6.927-15.52,15.455-15.52c8.594,0,15.519,6.926,15.519,15.52
		C133.411,92.689,126.485,99.615,117.892,99.615z M117.956,71.655c-6.798,0-12.377,5.579-12.377,12.377
		c0,6.862,5.579,12.377,12.377,12.377c6.862,0,12.442-5.515,12.442-12.377C130.398,77.234,124.817,71.655,117.956,71.655z"/>
</g>
</svg>
