<?xml version="1.0" encoding="utf-8"?>
<!-- Generator: Adobe Illustrator 18.0.0, SVG Export Plug-In . SVG Version: 6.00 Build 0)  -->
<!DOCTYPE svg PUBLIC "-//W3C//DTD SVG 1.1//EN" "http://www.w3.org/Graphics/SVG/1.1/DTD/svg11.dtd">
<svg version="1.1" id="Layer_1" xmlns="http://www.w3.org/2000/svg" xmlns:xlink="http://www.w3.org/1999/xlink" x="0px" y="0px"
	 viewBox="0 0 200 200" enable-background="new 0 0 200 200" xml:space="preserve">
<circle fill="#55ACEE" cx="100" cy="100" r="100"/>
<path fill="#FFFFFF" d="M142.456,82.932c0.065,0.917,0.065,1.835,0.065,2.752c0,27.977-21.293,60.212-60.212,60.212
	c-11.99,0-23.128-3.473-32.498-9.5c1.704,0.197,3.342,0.262,5.111,0.262c9.894,0,19.001-3.341,26.273-9.041
	c-9.304-0.197-17.1-6.29-19.787-14.676c1.311,0.196,2.621,0.327,3.997,0.327c1.9,0,3.801-0.262,5.569-0.721
	c-9.696-1.966-16.97-10.483-16.97-20.769c0-0.066,0-0.197,0-0.262c2.817,1.572,6.094,2.555,9.566,2.686
	c-5.7-3.8-9.434-10.286-9.434-17.625c0-3.93,1.048-7.534,2.883-10.679c10.418,12.842,26.077,21.228,43.636,22.145
	c-0.328-1.573-0.525-3.211-0.525-4.849c0-11.662,9.435-21.163,21.163-21.163c6.093,0,11.597,2.555,15.463,6.683
	c4.782-0.917,9.369-2.687,13.431-5.111c-1.572,4.914-4.914,9.042-9.304,11.662c4.259-0.459,8.386-1.638,12.187-3.276
	C150.188,76.184,146.584,79.919,142.456,82.932z"/>
</svg>
