<?xml version="1.0" encoding="utf-8"?>
<!-- Generator: Adobe Illustrator 18.0.0, SVG Export Plug-In . SVG Version: 6.00 Build 0)  -->
<!DOCTYPE svg PUBLIC "-//W3C//DTD SVG 1.1//EN" "http://www.w3.org/Graphics/SVG/1.1/DTD/svg11.dtd">
<svg version="1.1" id="Layer_1" xmlns="http://www.w3.org/2000/svg" xmlns:xlink="http://www.w3.org/1999/xlink" x="0px" y="0px"
	 viewBox="0 0 200 200" enable-background="new 0 0 200 200" xml:space="preserve">
<circle fill="#1AB7EA" cx="100" cy="100" r="100"/>
<path fill="#FFFFFF" d="M152.095,66.483c-4.193-5.321-12.993-5.525-19.133-4.605c-4.912,0.82-21.693,8.186-27.318,25.888
	c10.026-0.82,15.348,0.715,14.323,11.767c-0.408,4.707-2.763,9.721-5.32,14.632c-3.069,5.628-8.697,16.679-16.166,8.697
	c-6.651-7.163-6.243-20.873-7.675-29.98c-0.92-5.116-1.84-11.461-3.479-16.782c-1.433-4.502-4.808-9.925-8.799-11.152
	c-4.4-1.229-9.822,0.716-12.995,2.558c-10.026,5.934-16.679,14.325-26.5,21.282v0.716c3.276,1.638,2.251,4.298,4.81,4.707
	c6.036,0.818,11.767-5.627,15.756,1.125c2.457,4.094,3.174,8.595,4.708,12.995c2.149,5.934,3.683,12.381,5.422,19.135
	c2.865,11.561,6.345,28.752,16.373,32.947c5.014,2.149,12.687-0.716,16.472-3.069c10.438-6.139,18.725-15.042,25.58-24.251
	c16.067-21.487,24.764-46.044,26.092-53.105C155.167,75.18,155.062,70.268,152.095,66.483z"/>
</svg>
