<?xml version="1.0" encoding="utf-8"?>
<!-- Generator: Adobe Illustrator 18.0.0, SVG Export Plug-In . SVG Version: 6.00 Build 0)  -->
<!DOCTYPE svg PUBLIC "-//W3C//DTD SVG 1.1//EN" "http://www.w3.org/Graphics/SVG/1.1/DTD/svg11.dtd">
<svg version="1.1" id="Layer_1" xmlns="http://www.w3.org/2000/svg" xmlns:xlink="http://www.w3.org/1999/xlink" x="0px" y="0px"
	 viewBox="0 0 200 200" enable-background="new 0 0 200 200" xml:space="preserve">
<circle fill="#00B488" cx="100" cy="100" r="100"/>
<path fill="#FFFFFF" d="M149.005,118.081c-4.806,1.099-9.611,1.579-13.593,1.579c-9.611,20.182-26.842,37.482-32.609,40.709
	c-3.639,2.059-7.072,2.197-11.121-0.206c-7.07-4.257-33.843-26.224-42.769-95.285h19.428c4.874,41.464,16.82,62.745,29.932,78.672
	c7.275-7.277,14.279-16.957,19.702-27.872c-12.975-6.59-20.87-21.075-20.87-37.962c0-17.094,9.817-30,26.636-30
	c16.338,0,25.263,10.16,25.263,27.665c0,6.522-1.373,13.936-3.983,19.634c0,0-12.081,2.403-16.545-5.355
	c0.893-2.952,2.129-8.032,2.129-12.632c0-8.169-2.952-12.151-7.414-12.151c-4.737,0-8.033,4.463-8.033,13.044
	c0,17.505,11.121,27.528,25.537,27.528c2.541,0,5.425-0.275,8.308-0.961V118.081z"/>
</svg>
